<?xml version="1.0" encoding="UTF-8" standalone="yes"?>
<svg xmlns="http://www.w3.org/2000/svg" width="100%" height="100%" viewBox="0 0 136.528 17.618" fill="#FFFFFF">
  <path d="M11.50 17.62L11.50 17.62Q10.05 17.62 8.90 16.99Q7.75 16.35 7.08 15.23Q6.42 14.10 6.42 12.67L6.42 12.67L6.42 5.63Q6.42 5.27 6.23 4.97Q6.05 4.67 5.75 4.48Q5.45 4.30 5.08 4.30L5.08 4.30Q4.71 4.30 4.42 4.48Q4.12 4.67 3.94 4.97Q3.77 5.27 3.77 5.63L3.77 5.63L3.77 17.34L0 17.34L0 5.91Q0 4.46 0.66 3.36Q1.31 2.25 2.47 1.61Q3.63 0.97 5.08 0.97L5.08 0.97Q6.55 0.97 7.70 1.61Q8.86 2.25 9.52 3.36Q10.19 4.46 10.19 5.91L10.19 5.91L10.19 12.95Q10.19 13.32 10.37 13.63Q10.56 13.94 10.84 14.11Q11.13 14.28 11.48 14.28L11.48 14.28Q11.84 14.28 12.16 14.11Q12.47 13.94 12.65 13.63Q12.83 13.32 12.83 12.95L12.83 12.95L12.83 1.24L16.58 1.24L16.58 12.67Q16.58 14.10 15.92 15.23Q15.25 16.35 14.10 16.99Q12.95 17.62 11.50 17.62ZM25.02 17.62L25.02 17.62Q23.21 17.62 21.76 16.81Q20.31 16.01 19.47 14.60Q18.63 13.20 18.63 11.45L18.63 11.45Q18.63 9.68 19.47 8.29Q20.31 6.90 21.76 6.08Q23.21 5.27 25.02 5.27L25.02 5.27Q26.84 5.27 28.28 6.08Q29.72 6.90 30.56 8.29Q31.39 9.68 31.39 11.45L31.39 11.45Q31.39 13.20 30.56 14.60Q29.72 16.01 28.27 16.81Q26.82 17.62 25.02 17.62ZM25.02 14.51L25.02 14.51Q25.88 14.51 26.50 14.10Q27.12 13.68 27.46 12.99Q27.81 12.30 27.81 11.43L27.81 11.43Q27.81 10.58 27.46 9.89Q27.12 9.20 26.50 8.79Q25.88 8.37 25.02 8.37L25.02 8.37Q24.17 8.37 23.54 8.79Q22.91 9.20 22.56 9.89Q22.22 10.58 22.22 11.43L22.22 11.43Q22.22 12.30 22.56 12.99Q22.91 13.68 23.54 14.10Q24.17 14.51 25.02 14.51ZM43.17 17.34L39.67 17.34Q37.67 17.34 36.16 16.59Q34.64 15.85 33.80 14.52Q32.96 13.20 32.96 11.45L32.96 11.45Q32.96 9.52 33.76 8.14Q34.57 6.76 35.91 6.01Q37.26 5.27 38.89 5.27L38.89 5.27Q40.76 5.27 42.01 6.05Q43.26 6.83 43.91 8.18Q44.55 9.52 44.55 11.25L44.55 11.25Q44.55 11.55 44.52 11.95Q44.48 12.35 44.44 12.58L44.44 12.58L36.71 12.58Q36.85 13.18 37.24 13.59Q37.63 14.01 38.23 14.20Q38.82 14.40 39.56 14.40L39.56 14.40L43.17 14.40L43.17 17.34ZM36.62 10.35L36.62 10.35L41.10 10.35Q41.05 9.98 40.96 9.64Q40.87 9.29 40.68 9.03Q40.48 8.76 40.23 8.57Q39.97 8.37 39.64 8.26Q39.31 8.14 38.89 8.14L38.89 8.14Q38.36 8.14 37.95 8.33Q37.54 8.51 37.26 8.82Q36.98 9.13 36.83 9.53Q36.69 9.94 36.62 10.35ZM50.19 17.34L46.62 17.34L46.62 0.55L50.19 0.55L50.19 17.34ZM69.30 17.34L66.81 17.34Q64.84 17.34 63.25 16.73Q61.66 16.12 60.56 15.02Q59.45 13.91 58.86 12.45Q58.26 10.99 58.26 9.29L58.26 9.29Q58.26 7.59 58.86 6.13Q59.45 4.67 60.57 3.56Q61.69 2.46 63.26 1.85Q64.84 1.24 66.81 1.24L66.81 1.24L69.30 1.24L69.30 4.46L66.91 4.46Q65.83 4.46 64.94 4.83Q64.05 5.20 63.42 5.85Q62.79 6.51 62.46 7.38Q62.12 8.26 62.12 9.29L62.12 9.29Q62.12 10.33 62.46 11.20Q62.79 12.07 63.42 12.73Q64.05 13.39 64.94 13.75Q65.83 14.12 66.91 14.12L66.91 14.12L69.30 14.12L69.30 17.34ZM77.26 17.62L77.26 17.62Q75.44 17.62 73.99 16.81Q72.54 16.01 71.70 14.60Q70.86 13.20 70.86 11.45L70.86 11.45Q70.86 9.68 71.70 8.29Q72.54 6.90 73.99 6.08Q75.44 5.27 77.26 5.27L77.26 5.27Q79.07 5.27 80.51 6.08Q81.95 6.90 82.79 8.29Q83.63 9.68 83.63 11.45L83.63 11.45Q83.63 13.20 82.79 14.60Q81.95 16.01 80.50 16.81Q79.05 17.62 77.26 17.62ZM77.26 14.51L77.26 14.51Q78.11 14.51 78.73 14.10Q79.35 13.68 79.70 12.99Q80.04 12.30 80.04 11.43L80.04 11.43Q80.04 10.58 79.70 9.89Q79.35 9.20 78.73 8.79Q78.11 8.37 77.26 8.37L77.26 8.37Q76.41 8.37 75.77 8.79Q75.14 9.20 74.80 9.89Q74.45 10.58 74.45 11.43L74.45 11.43Q74.45 12.30 74.80 12.99Q75.14 13.68 75.77 14.10Q76.41 14.51 77.26 14.51ZM89.31 17.34L85.74 17.34L85.74 10.56Q85.74 9.08 86.46 7.89Q87.17 6.69 88.49 5.98Q89.81 5.27 91.63 5.27L91.63 5.27Q93.47 5.27 94.77 5.98Q96.07 6.69 96.76 7.89Q97.45 9.08 97.45 10.56L97.45 10.56L97.45 17.34L93.89 17.34L93.89 10.65Q93.89 10.03 93.59 9.51Q93.29 8.99 92.77 8.68Q92.25 8.37 91.61 8.37L91.61 8.37Q90.94 8.37 90.42 8.68Q89.91 8.99 89.61 9.51Q89.31 10.03 89.31 10.65L89.31 10.65L89.31 17.34ZM103.68 17.34L100.12 17.34L100.12 0.55L103.68 0.55L103.68 17.34ZM109.92 17.34L106.33 17.34L106.33 5.54L109.92 5.54L109.92 17.34ZM108.12 4.21L108.12 4.21Q107.27 4.21 106.65 3.59Q106.03 2.97 106.03 2.12L106.03 2.12Q106.03 1.27 106.65 0.63Q107.27 0 108.12 0L108.12 0Q108.97 0 109.59 0.63Q110.22 1.27 110.22 2.12L110.22 2.12Q110.22 2.97 109.59 3.59Q108.97 4.21 108.12 4.21ZM118.75 17.34L112.56 17.34L112.56 14.51L118.24 14.51Q118.47 14.51 118.66 14.41Q118.84 14.31 118.96 14.12Q119.07 13.94 119.07 13.73L119.07 13.73Q119.07 13.50 118.96 13.32Q118.84 13.13 118.66 13.03Q118.47 12.93 118.24 12.93L118.24 12.93L116.17 12.93Q115.02 12.93 114.09 12.55Q113.16 12.17 112.62 11.35Q112.08 10.53 112.08 9.22L112.08 9.22Q112.08 8.21 112.57 7.38Q113.07 6.55 113.93 6.05Q114.79 5.54 115.83 5.54L115.83 5.54L121.51 5.54L121.51 8.39L116.38 8.39Q116.06 8.39 115.84 8.60Q115.62 8.81 115.62 9.11L115.62 9.11Q115.62 9.43 115.84 9.65Q116.06 9.87 116.38 9.87L116.38 9.87L118.40 9.87Q119.69 9.87 120.62 10.25Q121.55 10.63 122.07 11.45Q122.59 12.28 122.59 13.59L122.59 13.59Q122.59 14.63 122.07 15.48Q121.55 16.33 120.69 16.84Q119.83 17.34 118.75 17.34L118.75 17.34ZM128.29 17.34L124.73 17.34L124.73 0.55L128.29 0.55L128.29 10.00L129.86 10.00L132.55 5.54L136.53 5.54L133.35 10.46Q134.73 11.04 135.50 12.22Q136.27 13.41 136.27 15.00L136.27 15.00L136.27 17.34L132.69 17.34L132.69 15.00Q132.69 14.35 132.38 13.83Q132.07 13.32 131.56 13.02Q131.05 12.72 130.41 12.72L130.41 12.72L128.29 12.72L128.29 17.34Z" preserveAspectRatio="none"/>
</svg>